<?xml version="1.0" encoding="UTF-8"?>
<svg id="Capa_2" data-name="Capa 2" xmlns="http://www.w3.org/2000/svg" viewBox="0 0 336.72 336.6">
  <defs>
    <style>
      .cls-1 {
        fill: #d42b2b;
      }
    </style>
  </defs>
  <g id="Capa_1-2" data-name="Capa 1">
    <g>
      <path class="cls-1" d="M61.17,183.54l92.13.02-.02,91.86-92.13-.02.02-91.86ZM91.86,213.94l-.29,30.88,30.87.29.29-30.88-30.87-.29Z"/>
      <path class="cls-1" d="M275.53,61.1v92.09h-91.89V61.1h91.89ZM245.15,91.79l-30.93.02.02,30.67,30.93-.02-.02-30.67Z"/>
      <path class="cls-1" d="M61.19,61.14l91.94.04-.04,92.02-91.94-.04.04-92.02ZM122.5,91.81h-30.72s.01,30.65.01,30.65h30.72s-.01-30.65-.01-30.65Z"/>
      <polygon class="cls-1" points="30.65 30.64 30.63 91.83 .01 91.78 .03 0 91.75 .04 91.86 30.63 30.65 30.64"/>
      <polygon class="cls-1" points="306.09 91.86 306.05 30.66 244.8 30.56 244.99 .01 336.68 .02 336.72 91.78 306.09 91.86"/>
      <polygon class="cls-1" points="91.65 305.97 91.84 336.59 0 336.6 .03 244.89 30.64 244.8 30.63 306 91.65 305.97"/>
      <polygon class="cls-1" points="245.15 336.59 244.95 305.98 306.04 306.02 306.07 244.84 336.7 244.82 336.72 336.6 245.15 336.59"/>
      <polygon class="cls-1" points="213.85 214.23 183.73 214.21 183.62 183.6 214.21 183.6 214.26 213.78 214.92 214.22 275.51 214.21 275.48 275.38 244.94 275.36 244.85 244.78 214.28 244.77 214.23 214.86 213.85 214.23"/>
      <rect class="cls-1" x="183.52" y="244.76" width="30.71" height="30.79" transform="translate(-61.34 458.95) rotate(-89.98)"/>
    </g>
  </g>
</svg>