<?xml version="1.0" encoding="UTF-8"?>
<svg id="Capa_2" data-name="Capa 2" xmlns="http://www.w3.org/2000/svg" viewBox="0 0 470.32 470.19">
  <defs>
    <style>
      .cls-1 {
        fill: #d42b2b;
      }
    </style>
  </defs>
  <g id="Capa_1-2" data-name="Capa 1">
    <g>
      <path class="cls-1" d="M470.32,401.69c.02,36.42-29.71,68.37-66.32,68.38l-336.73.12c-36.37.01-67.14-30.86-67.16-67.14L0,68.27C-.01,30.91,30.91,0,68.27,0h333.76c36.73.01,68.13,30.26,68.15,67.28l.14,334.41ZM223.33,248.62l95.83-104.28c13.61-14.81,29.43-24.22,48.06-15.22,7.85,4.59,15.01,9.87,21.44,16.56l46.4,48.33.08-124.84c-.29-18.93-14.89-34.01-34.14-34.02l-330.7-.04c-19.43,0-35.13,14.33-35.13,34.17v195.27s37.54-38.8,37.54-38.8c6.23-6.44,13.34-11.06,21.62-14.57,11.18-3.09,23.16-1.24,32.49,6.5l45.23,37.51c4.53,3.75,9.28,7,14.42,9.59,14.13,7.14,26.17-4.53,36.85-16.15Z"/>
      <circle class="cls-1" cx="177.16" cy="135.57" r="46.05"/>
    </g>
  </g>
</svg>