<?xml version="1.0" encoding="UTF-8"?>
<svg id="Capa_2" data-name="Capa 2" xmlns="http://www.w3.org/2000/svg" viewBox="0 0 290.27 350.03">
  <defs>
    <style>
      .cls-1 {
        fill: #ffffff;
      }
    </style>
  </defs>
  <g id="Capa_1-2" data-name="Capa 1">
    <g>
      <path class="cls-1" d="M287.76,294.36c-3.17,6.56-9.6,12.99-17.47,12.99l-249.01.04c-8.75,0-15.88-6.38-18.98-13.06-3.74-8.05-3-17.23,2.89-23.73,9.16-10.12,17.93-19.78,24.59-31.84,7.48-13.55,13.93-27.88,14.85-43.62l.42-54.23c1.75-54.65,48.39-97.01,102.63-94.07,50.97-.32,93.37,38.66,97.47,89.79l.61,59.06c.93,15.51,7.44,29.69,14.8,43.05,6.87,12.48,16.13,22.29,25.44,32.84,5.38,6.09,5.36,15.32,1.77,22.77Z"/>
      <path class="cls-1" d="M149.43,350l-8.18.03c-18.24-1.38-34.58-12.21-41.56-30.05h90.89c-6.32,17.25-22.6,28.59-41.15,30.02Z"/>
      <path class="cls-1" d="M174.37,37.38c-19.38-4.07-38.64-4.46-58.14.07-.1-3.89-.26-7.55.08-11.39,1.12-12.91,11.12-23.02,23.17-25.46,12.83-2.61,26.24,3.53,31.86,15.46,3.06,6.49,3.23,13.39,3.03,21.33Z"/>
    </g>
  </g>
</svg>