<?xml version="1.0" encoding="UTF-8"?>
<svg id="Capa_2" data-name="Capa 2" xmlns="http://www.w3.org/2000/svg" viewBox="0 0 297.24 346.6">
  <defs>
    <style>
      .cls-1 {
        fill: #fff;
      }
    </style>
  </defs>
  <g id="Capa_1-2" data-name="Capa 1">
    <g>
      <path class="cls-1" d="M187.05,16.96c9.83.75,17.31,7.79,18.91,17.76v96.14s0,14.92,0,14.92h0s0,10.57,0,10.57v119.33s0,9.36,0,9.36l7.92,4.99c2.49,1.57,4.3,3.83,4.31,5.37l.18,27.23c-.45,3.29-3.12,7.02-6.07,7.02H23c-2.73,0-5.43-3.55-5.98-6.69l-.06-25.23c0-3.19,1.49-5.91,4.1-7.45l8.31-4.92v-9.66s.18-240.36.18-240.36c0-9.36,9.12-18.22,18.74-18.23l138.77-.14M187.6,0L48.27.14C29.6.16,12.6,16.33,12.59,35.32l-.17,240.36C4.62,280.29-.02,288.58,0,297.76l.07,26.25c1.08,11.33,10.48,22.58,22.93,22.58h189.31c12.74,0,22.18-11.52,23.03-23.21l-.19-28.1c-.05-8.3-5.49-15.36-12.23-19.61v-119.33c6.46,1.66,12.05,7.61,12.12,14.68l.62,63.5c.86,16.24,15.33,27.9,30.57,27.9.07,0,.15,0,.22,0,15.81-.12,28.78-11.71,30.78-28.1l-.2-141.35c-.01-7.77-3.93-15.88-9.13-21.11l-31.48-31.64c-2.22-2.24-5.14-3.24-8.06-3.24-3.42,0-6.84,1.39-9.14,3.8-4.23,4.44-5.01,12.15-.28,16.9l29,29.14c1.94,1.95,4.48,4.85,4.48,8.04l.03,136.63c0,3.67-3.23,6.1-6.22,6.1-.08,0-.16,0-.24,0-3.34-.15-6.13-2.98-5.92-6.65l-.07-62.31c-2.54-20.05-17.23-35.21-37.1-37.76V33.53C220.64,15.03,206.17,1.06,187.6,0h0Z"/>
      <path class="cls-1" d="M174.26,123.85c6.3-.84,11.45-5.55,11.45-11.83v-63.07c-.01-7.03-6.29-11.8-12.98-11.8H62.62c-7.61,0-13.05,5.48-13.06,13.02l-.03,60.05c0,6.73,4.38,13.57,11.87,13.57l112.86.06Z"/>
    </g>
  </g>
</svg>