<?xml version="1.0" encoding="UTF-8"?>
<svg id="Capa_2" data-name="Capa 2" xmlns="http://www.w3.org/2000/svg" viewBox="0 0 297.24 346.6">
  <defs>
    <style>
      .cls-1 {
        fill: #fff;
      }
    </style>
  </defs>
  <g id="Capa_1-2" data-name="Capa 1">
    <path class="cls-1" d="M297.24,234.31c-1.99,16.39-14.97,27.99-30.78,28.1-15.33.11-29.93-11.58-30.79-27.9l-.62-63.5c-.07-7.06-5.66-13.02-12.11-14.68v119.33c6.73,4.24,12.17,11.3,12.22,19.61l.19,28.1c-.85,11.69-10.29,23.22-23.03,23.22H23c-12.46,0-21.86-11.25-22.93-22.58L0,297.76c-.02-9.18,4.62-17.47,12.41-22.09l.17-240.36C12.6,16.33,29.6.16,48.27.14l139.32-.14c18.57,1.06,33.04,15.03,35.33,33.53v97.31c19.88,2.55,34.56,17.71,37.1,37.76l.07,62.31c-.21,3.66,2.58,6.5,5.92,6.65,3.05.13,6.46-2.33,6.46-6.1l-.03-136.63c0-3.18-2.54-6.08-4.48-8.04l-29-29.14c-4.73-4.75-3.95-12.46.28-16.9,4.25-4.46,12.36-5.42,17.19-.56l31.48,31.64c5.2,5.23,9.12,13.34,9.13,21.11l.2,141.35ZM174.26,123.85c6.3-.84,11.45-5.55,11.45-11.83v-63.07c-.01-7.03-6.29-11.8-12.98-11.8H62.62c-7.61,0-13.05,5.48-13.06,13.02l-.03,60.05c0,6.73,4.38,13.57,11.87,13.57l112.86.06Z"/>
  </g>
</svg>