<?xml version="1.0" encoding="UTF-8"?>
<svg id="Capa_2" data-name="Capa 2" xmlns="http://www.w3.org/2000/svg" viewBox="0 0 319.99 319.99">
  <defs>
    <style>
      .cls-1 {
        fill: #fff;
      }
    </style>
  </defs>
  <g id="Capa_1-2" data-name="Capa 1">
    <path class="cls-1" d="M126.14,68.36l22.33-60.34c3.96-10.7,19.08-10.7,23.04,0l22.33,60.34c9.91,26.77,31.01,47.88,57.78,57.78l60.34,22.33c10.7,3.96,10.7,19.08,0,23.04l-60.34,22.33c-26.77,9.91-47.88,31.01-57.78,57.78l-22.33,60.34c-3.96,10.7-19.08,10.7-23.04,0l-22.33-60.34c-9.91-26.77-31.01-47.88-57.78-57.78l-60.34-22.33c-10.7-3.96-10.7-19.08,0-23.04l60.34-22.33c26.77-9.91,47.88-31.01,57.78-57.78Z"/>
  </g>
</svg>