<?xml version="1.0" encoding="UTF-8"?>
<svg id="Capa_2" data-name="Capa 2" xmlns="http://www.w3.org/2000/svg" viewBox="0 0 300.18 341.35">
  <defs>
    <style>
      .cls-1 {
        fill: #fff;
      }
    </style>
  </defs>
  <g id="Capa_1-2" data-name="Capa 1">
    <path class="cls-1" d="M296.53,16.95c-2.37-2.38-5.52-3.68-8.87-3.68h-32.83c-.12-4.64-.3-8.32-.42-10.61-.38-.9-.81-1.79-1.33-2.66L48.43.05s-.36,5.16-.58,13.21H15.4c-4.16,0-8.06,1.63-10.98,4.59C1.51,20.82-.06,24.73,0,28.89c.2,13.16,1.41,39.36,7.31,67.01,7.59,35.55,20.37,61.61,37.98,77.46,13.24,11.92,29.01,17.94,46.97,17.94,1.08,0,2.16-.03,3.26-.08,6.8,8.84,14.7,16.52,24.32,22.55,20.09,12.6,12,40.21,3.33,65.72l-43.43-.19c-2.65-.01-7.31,4.52-7.31,7.12v54.72c1.63,0,158.29.2,158.29.2l-.59-61.49-50.26-.6c-5.81-14.75-9.64-30.74-8.84-46.76.47-9.46,6.12-14.91,13.33-19.47,7.18-4.54,13.28-10.14,18.68-16.4.63-.99,1.42-2.08,2.45-3.28.58-.68,1.14-1.37,1.7-2.06.23,0,.47.02.7.02,18.1,0,33.98-6.11,47.28-18.22,41.35-37.63,44.9-122.22,45.01-147.25.01-3.35-1.28-6.5-3.65-8.88ZM56.64,160.76C21.95,129.53,17.48,54.93,16.98,30.22h30.75c.07,4.91.23,10.14.54,15.49.84,10.3,2.05,20.33,3.67,30.28,5.19,25.17,12.69,62.97,29.57,94.14.23.04.46.1.7.14.63,1.18,1.28,2.36,1.93,3.52-10.34-1.45-19.42-5.75-27.5-13.03ZM243.75,160.54c-7.26,6.61-15.34,10.82-24.41,12.68.63-1.06,1.26-2.13,1.88-3.2,16.88-31.23,24.36-69.1,29.55-94.24,2.98-14.46,3.97-31.39,4.17-45.56h28.22c-.5,23.73-4.85,98.87-39.41,130.32Z"/>
  </g>
</svg>