<?xml version="1.0" encoding="UTF-8"?>
<svg id="Capa_2" data-name="Capa 2" xmlns="http://www.w3.org/2000/svg" viewBox="0 0 302.77 302.68">
  <defs>
    <style>
      .cls-1 {
        fill: #ffffff;
      }
    </style>
  </defs>
  <g id="Capa_1-2" data-name="Capa 1">
    <g>
      <path class="cls-1" d="M.03,172.92l130.11.03-.03,129.73-130.11-.03.03-129.73ZM43.38,215.85l-.41,43.61,43.6.41.41-43.61-43.6-.41Z"/>
      <path class="cls-1" d="M302.77,0v130.06h-129.77V0h129.77ZM259.87,43.34l-43.69.03.03,43.31,43.69-.03-.03-43.31Z"/>
      <path class="cls-1" d="M.07.05l129.84.06-.06,129.95L.01,130,.07.05ZM86.66,43.37h-43.38s.01,43.28.01,43.28h43.38s-.01-43.28-.01-43.28Z"/>
      <polygon class="cls-1" points="215.67 216.26 173.12 216.24 172.97 173 216.16 173 216.24 215.62 217.17 216.24 302.74 216.23 302.71 302.62 259.57 302.59 259.44 259.4 216.26 259.39 216.2 217.15 215.67 216.26"/>
    </g>
  </g>
</svg>